PathFileType	4	(X/Y/Z)	Kaydara	
DataRate	CameraRate	NumFrames	NumMarkers	Units	OrigDataRate	OrigDataStartFrame	OrigNumFrames	
240.00	240.00	4	72	mm	240.00	1	359	
Frame#	Time	Hips			RightUpLeg			RightLeg			RightFoot			RightFoot_End			LeftUpLeg			LeftLeg			LeftFoot			LeftFoot_End			Spine			Spine1			Spine2			Spine3			Neck			Head			Head_End			RightShoulder			RightArm			RightForeArm			RightHand			RightHandThumb1			RightHandThumb2			RightHandThumb3			RightHandThumb3_End			RightInHandIndex			RightHandIndex1			RightHandIndex2			RightHandIndex3			RightHandIndex3_End			RightInHandMiddle			RightHandMiddle1			RightHandMiddle2			RightHandMiddle3			RightHandMiddle3_End			RightInHandRing			RightHandRing1			RightHandRing2			RightHandRing3			RightHandRing3_End			RightInHandPinky			RightHandPinky1			RightHandPinky2			RightHandPinky3			RightHandPinky3_End			LeftShoulder			LeftArm			LeftForeArm			LeftHand			LeftHandThumb1			LeftHandThumb2			LeftHandThumb3			LeftHandThumb3_End			LeftInHandIndex			LeftHandIndex1			LeftHandIndex2			LeftHandIndex3			LeftHandIndex3_End			LeftInHandMiddle			LeftHandMiddle1			LeftHandMiddle2			LeftHandMiddle3			LeftHandMiddle3_End			LeftInHandRing			LeftHandRing1			LeftHandRing2			LeftHandRing3			LeftHandRing3_End			LeftInHandPinky			LeftHandPinky1			LeftHandPinky2			LeftHandPinky3			LeftHandPinky3_End			
		X1	Y1	Z1	X2	Y2	Z2	X3	Y3	Z3	X4	Y4	Z4	X5	Y5	Z5	X6	Y6	Z6	X7	Y7	Z7	X8	Y8	Z8	X9	Y9	Z9	X10	Y10	Z10	X11	Y11	Z11	X12	Y12	Z12	X13	Y13	Z13	X14	Y14	Z14	X15	Y15	Z15	X16	Y16	Z16	X17	Y17	Z17	X18	Y18	Z18	X19	Y19	Z19	X20	Y20	Z20	X21	Y21	Z21	X22	Y22	Z22	X23	Y23	Z23	X24	Y24	Z24	X25	Y25	Z25	X26	Y26	Z26	X27	Y27	Z27	X28	Y28	Z28	X29	Y29	Z29	X30	Y30	Z30	X31	Y31	Z31	X32	Y32	Z32	X33	Y33	Z33	X34	Y34	Z34	X35	Y35	Z35	X36	Y36	Z36	X37	Y37	Z37	X38	Y38	Z38	X39	Y39	Z39	X40	Y40	Z40	X41	Y41	Z41	X42	Y42	Z42	X43	Y43	Z43	X44	Y44	Z44	X45	Y45	Z45	X46	Y46	Z46	X47	Y47	Z47	X48	Y48	Z48	X49	Y49	Z49	X50	Y50	Z50	X51	Y51	Z51	X52	Y52	Z52	X53	Y53	Z53	X54	Y54	Z54	X55	Y55	Z55	X56	Y56	Z56	X57	Y57	Z57	X58	Y58	Z58	X59	Y59	Z59	X60	Y60	Z60	X61	Y61	Z61	X62	Y62	Z62	X63	Y63	Z63	X64	Y64	Z64	X65	Y65	Z65	X66	Y66	Z66	X67	Y67	Z67	X68	Y68	Z68	X69	Y69	Z69	X70	Y70	Z70	X71	Y71	Z71	X72	Y72	Z72	

1	0.0	3198.941	914.58397	126.699	3254.3881520062087	897.178326193597	53.26806106610815	3159.8408410050574	500.3446324862772	-42.07855262184826	3143.156151993509	108.89546009303696	-117.96870252985798	2991.3382246064084	31.86586510451689	-31.04141956169252	3158.1119818156467	906.0051256832228	211.54128392215944	3067.6177931979078	504.0215061276124	286.6088737209836	2996.3515601709014	79.38099171570943	377.31711724504504	2874.7119049479893	-3.100500600408616	255.09025979606704	3130.9017486173525	1031.2273944050073	79.07331102561554	3067.665392109243	1086.7628313822227	30.427122094523487	2998.762059980352	1137.3814696672493	-23.768568093801782	2928.958188533093	1174.0099430494622	-80.55607479283537	2853.35654985902	1213.7103486174087	-139.57630109910028	2782.94833383866	1250.290428590111	-190.71914685257778	2644.2837708265956	1328.9358469252531	-197.1799044525029	2898.6569665328766	1201.558493939163	-144.62048664841666	2956.4342593956317	1191.5679489694023	-263.51427549888865	3039.9319160008718	929.810622531004	-296.0956658826253	3045.9904954301815	780.7011747236572	-477.02886041994714	3051.9045460167613	787.1535612939194	-506.42958554134833	3034.3359260777743	785.8908335699704	-532.1865096388931	3021.8554141508002	782.0345994376473	-549.1889062451639	3011.2407525957688	776.2731902011404	-562.5634290065985	3053.9934100670775	776.9138014562511	-506.3512872276855	3054.8003317170756	760.7790737195469	-545.2073776533039	3042.3974806732786	750.4080705307306	-569.1761054042952	3027.7079963152946	748.1078541812991	-580.1379462401403	3010.8422057190396	749.0015358967598	-586.5537327645543	3052.6808014806065	769.4195144511795	-502.3105751628994	3052.761555895309	749.6282786994676	-538.0248897566	3039.0355720938996	737.3760056242459	-563.5165047325291	3021.221089607611	734.1519967050807	-576.4233787506173	3002.722051467533	734.9116324628509	-583.288730558186	3051.863044220087	764.5051583471632	-498.4970774995696	3051.606465224482	742.4104539992437	-527.2898211273997	3039.4450269062872	730.8067398739045	-548.7740670438453	3022.1564746154145	727.2059294529416	-560.8337907968429	3004.712920784489	727.6875072575302	-567.1041399435207	3049.871535646295	759.5556950750406	-492.7176598773755	3048.8455694923628	736.1287493561616	-515.6858410058928	3038.798680217665	725.491048213356	-531.6181803211196	3026.039126055049	722.2135580649499	-539.79954324352	3010.5010984992523	722.2654775914225	-545.0000881211536	2858.197034304875	1199.6687944611058	-94.13123600921772	2810.05675472996	1133.7159012178856	9.799450394127508	2957.5957800079727	972.1382689632663	-158.38083111239672	3052.1737913674265	847.8577047976211	-369.59002785448155	3079.3303831651906	858.4044128679301	-391.2021217843142	3116.5282687337576	851.144397739023	-400.653733148027	3141.568049131048	842.7557274910945	-407.42554521932686	3161.702786632278	832.9113490596037	-413.23320411186313	3077.877933130513	848.2459207057886	-395.5746942262019	3117.6087635515873	832.9214466662618	-428.58575239250393	3149.7648306903397	817.8716152731614	-442.42609668447585	3169.8518380951064	810.0119095202668	-443.3019351903342	3186.542330439171	804.516046841634	-438.8136127950285	3074.357095396996	839.5062026883263	-394.50763807681477	3111.2036420609106	819.8331069606512	-426.1310678890331	3145.7044950577856	802.3017891580815	-440.9743598862964	3169.6566590554944	792.2871928953424	-441.9065743893007	3187.7819500466157	786.0150260761827	-436.9350366754017	3070.812240262356	833.7423458752611	-393.01191065670236	3100.6295975043554	811.1654919561138	-420.34855573606825	3130.0422825940623	794.7824522966071	-432.970067672483	3152.7964014700956	784.5369977258664	-433.7014553181545	3169.6730512243557	778.3620868874066	-428.94742221819416	3065.91834645572	827.3880064028182	-389.5396488722692	3090.1164023891183	802.8243588199675	-412.82002905205553	3112.5121195105	788.0834325974417	-422.3139790920911	3128.5494530854344	779.8257401633106	-422.5509870282457	3143.177351205092	773.9042206957704	-418.1690575446237
2	0.004	3198.941	914.58397	126.699	3254.4250628174327	897.2188660040006	53.27671044794289	3159.905888352146	500.37141313116666	-42.04337267175954	3143.134109642589	108.91791439271442	-117.90428354946131	2991.315970344009	31.899611795024857	-30.967351831129616	3158.0784555582486	905.964460583066	211.5285630165334	3067.5754257535723	503.9815852490057	286.58974587617314	2996.32529455542	79.34796429680149	377.3538053036089	2874.681058361715	-3.1261031601033413	255.12642508302955	3130.884996954806	1031.2260252890546	79.09094640828863	3067.583197704742	1086.6801301819944	30.43846658975429	2998.6382186188575	1137.2352067770812	-23.761274375618772	2928.8543281364623	1173.8780725687561	-80.56327278985853	2853.2739942737808	1213.5954914443607	-139.5985970132117	2782.884954621537	1250.192754940674	-190.75490079357434	2644.2018986248954	1328.8151066604426	-197.16682584529005	2898.6026024999	1201.4923338125152	-144.633772419436	2956.50560295545	1191.631547222162	-263.5475275835078	3040.143350236694	929.7505583573933	-296.5098111659191	3046.7422847886837	780.9073034824548	-478.08163573368313	3052.6587436555296	787.438589727665	-507.4739795527545	3035.102714928099	786.2692008520803	-533.275924604934	3022.6400075118927	782.4756779874454	-550.326648560411	3012.047918005525	776.7645901863975	-563.7559802644166	3054.782464881865	777.1970003998726	-507.4562299882147	3055.6701258381404	761.1752975288031	-546.4529739909968	3043.3114656930893	750.8875470089333	-570.5170765374884	3028.629246180014	748.6347072444146	-581.5120935634185	3011.7558357115868	749.5646472018376	-587.9377235070489	3053.491050400157	769.6927713036265	-503.45667099279905	3053.662023283063	750.0063970660916	-539.3304358919456	3039.9867812772372	737.843296172848	-564.9310933656885	3022.1822716113734	734.6756432191635	-577.8803785247294	3003.6754846435533	735.4745621232044	-584.7576602169154	3052.6864040451082	764.7684682917493	-499.66882196197963	3052.5226354752645	742.7589902814996	-528.6272130398644	3040.4078546842447	731.2311245515224	-550.2113288183215	3023.130214144506	727.6836784754395	-562.3145254616273	3005.679985427195	728.2017199448018	-568.597305563538	3050.7061154660273	759.8045727314532	-493.91359825485057	3049.772879260197	736.4468057147872	-517.0492215070857	3039.76673747732	725.8665453017769	-533.068339735769	3027.016779208731	722.6263846008369	-541.2847052730253	3011.473783020898	722.7096886350442	-546.4981576303927	2858.070544799712	1199.492396225359	-94.15172905082748	2809.85416528951	1133.3854337204066	9.748271459261616	2957.495740571717	971.981133273377	-158.9054156701239	3052.5326835007245	848.1113679524082	-370.66848333151734	3079.740949714915	858.6578720084451	-392.24102815329707	3117.0106381418605	851.384291028381	-401.70152542931476	3142.1048638114726	842.9915175532707	-408.4944442655828	3162.2887894192095	833.148290433262	-414.33245971535536	3078.309638707209	848.521804267874	-396.66312019555556	3118.16616085917	833.236881302982	-429.7461738537398	3150.4071549702717	818.1970222048632	-443.6383809861107	3170.5321937724007	810.3264604723895	-444.52968906942635	3187.244204121324	804.8101085166395	-440.04285721763824	3074.7963852762255	839.7944110997895	-395.6342163935999	3111.7696310441893	820.1665627698628	-427.34850525799624	3146.363746782286	802.6476041203621	-442.25319184171815	3170.3620763554036	792.6206187062722	-443.20637529157074	3188.5110505305884	786.3263758925457	-438.23758794456336	3071.2537607023805	834.0384728226703	-394.16369997248904	3101.18683605583	811.509690664882	-421.6039333199469	3130.681210660569	795.1388577732762	-434.2837214649845	3153.4800748510697	784.8822154238152	-435.0378652082442	3170.3790936108194	778.6869088082452	-430.28761749315765	3066.3581683069247	827.6903736319753	-390.7176692345387	3090.6616198577813	803.1754190012423	-414.10957021043157	3113.1228741412538	788.4462949940142	-423.6571672800175	3129.1929039414554	780.1814214127593	-423.9141497545185	3143.840651519053	774.2423997480494	-419.537517836892
3	0.008	3198.941	914.58397	126.699	3254.4583855299047	897.2563378908045	53.28380188698521	3159.9538917673217	500.3977805611038	-42.00734559544457	3143.1078898207143	108.94052583520438	-117.84391719102211	2991.2898203145446	31.931619657219652	-30.89853315785213	3158.0477022310943	905.9263028070933	211.51715073263685	3067.5304422467157	503.9456074958283	286.57308258075113	2996.297146278171	79.3176372207214	377.3873298579062	2874.6502386078714	-3.1501810376937036	255.15832854012677	3130.8720404595742	1031.2273108813104	79.10977547689141	3067.5229027063588	1086.6265009250926	30.456755454075868	2998.551161611186	1137.143062796667	-23.743448671643378	2928.7918540877276	1173.811569381303	-80.55869785592382	2853.2374972391317	1213.5575021601594	-139.6077391007192	2782.8718977380363	1250.182288470056	-190.7761864136759	2644.166183704438	1328.774617496227	-197.14345465000082	2898.5963576077716	1201.507122339322	-144.63565767190966	2956.6582259587844	1191.8425921071728	-263.6090189692828	3040.48269118364	929.8020978212743	-297.0184877093025	3047.546268639606	781.2188115591779	-479.2461446340809	3053.4890060173143	787.8270198137199	-508.6789596241683	3035.9212617186536	786.7428038107778	-534.576811064233	3023.453131038659	783.0058751082043	-551.7061951134248	3012.858859835805	777.3396408470977	-565.2112567824771	3055.6303005088876	777.5823202099926	-508.7067959747779	3056.571919545277	761.6651440759268	-547.8820335288957	3044.2221912837967	751.4523630045304	-572.0739811122464	3029.5234023456846	749.2414591525336	-583.1269516807425	3012.6213539806677	750.2029583561	-589.5860293977628	3054.3430860487415	770.0671614238167	-504.7334828858968	3054.5689682466327	750.4768267119549	-540.7955409987841	3040.903816730062	738.3937534737654	-566.5385907612749	3023.0794807771276	735.2758420164639	-579.5591807240689	3004.5414397268055	736.1088775200092	-586.473734093144	3053.540349821264	765.1324501634265	-500.95969702623984	3053.42838232212	743.1999491569366	-530.0992692648367	3041.3226574382506	731.7398669685898	-551.8101502207313	3024.026032308258	728.2393548041312	-563.9835360716893	3006.5464819595177	728.7889787980972	-570.3020283504026	3051.558184439744	760.153683156621	-495.21491240395017	3050.6723920776813	736.8573201300815	-518.5234616065012	3040.6736803656295	726.3279312712663	-534.6474389992082	3027.90996027133	723.120355943637	-542.9166224766095	3012.3410407047713	723.2306889375666	-548.1626430305944	2857.9847958794553	1199.3808647622238	-94.1580659116884	2809.6586192613586	1133.079006990088	9.703619434695261	2957.4264957246396	971.8698689241032	-159.4976594301541	3052.89428611432	848.4004846142197	-371.8604188533765	3080.1914868691047	858.9596211578458	-393.41853374196313	3117.562350715411	851.6821183371856	-402.8778465098424	3142.727089799372	843.2903451691687	-409.68230125976777	3162.9698462192664	833.4511441118385	-415.5405066656184	3078.7689224523683	848.8413573949856	-397.8864284984212	3118.7732451101188	833.602636000779	-431.0510669566452	3151.1150120230836	818.5774704239107	-444.98499654142466	3171.290044272713	810.699836593213	-445.87758060697354	3188.0348971589165	805.16669943495	-441.3751698007211	3075.2505748360363	840.1216757946029	-396.8875873852955	3112.3652260547738	820.5430662977938	-428.69771715750124	3147.068151441462	803.0409883414201	-443.65161376691503	3171.1262416200916	793.0058764619071	-444.608105056637	3189.310882923967	786.6934640294963	-439.62312994381574	3071.70063032129	834.3702170552988	-395.4364779079802	3101.754228304925	811.8900689283762	-422.98018184260116	3131.3420379719805	795.5347335137197	-435.70647249955067	3154.1978018108566	785.2706695069136	-436.4657241236761	3171.130003421092	779.0584764534503	-431.7011647701445	3066.7919195003715	828.0242817015825	-392.00848272107294	3091.1980432651644	803.5559907988742	-415.50727046021797	3113.7314024138914	788.8402871000063	-425.0972856470458	3129.8416213004934	780.5704879985321	-425.3604987296472	3144.518007804674	774.6167894198824	-420.9726321699344
4	0.013	3198.941	914.58397	126.699	3254.4888335383175	897.2913705361781	53.28965982572181	3159.9882549806134	500.42395628121193	-41.97111270567038	3143.080306516621	108.96356083207334	-117.78836152152773	2991.2624898181944	31.96207799836549	-30.835963359314693	3158.0191689554267	905.8901338223297	211.5067702813212	3067.483933544399	503.9128005420159	286.559250279347	2996.2679544552866	79.28960605923476	377.41966248025057	2874.6200972913334	-3.173222129226173	255.18818484864477	3130.862131566949	1031.2307286073135	79.12956881332875	3067.482614634987	1086.5997246851036	30.481410238334526	2998.4980743168844	1137.1012555675948	-23.715856715609625	2928.767698887541	1173.8057394323794	-80.54333182326113	2853.2437350511073	1213.590746225626	-139.60494905477125	2782.905725827634	1250.2527695363763	-190.78447120258906	2644.1740809724497	1328.8092970445603	-197.1128016487163	2898.635309295336	1201.5978995218597	-144.6271519446948	2956.8807281269183	1192.177552560738	-263.6884678241295	3040.926526758311	929.9529677425285	-297.58759524232545	3048.4025424140095	781.6279986963299	-480.4627752753921	3054.38910892469	788.3116695533382	-509.97242412869406	3036.7910555318904	787.30675185144	-536.004103110746	3024.299776416972	783.6220167467208	-553.2346831479045	3013.684460587998	777.9967024904769	-566.8309495251552	3056.534773845406	778.0629305886001	-510.0344151420863	3057.5092730263195	762.2441189660669	-549.4157249923094	3045.1414685490195	752.1003382400174	-573.7594432193341	3030.4080719660574	749.9274666630106	-584.8888550727718	3013.46161478381	750.9171646189282	-591.3991196640234	3055.2389149646974	770.5361344755282	-506.0760807419281	3055.492203449414	751.0354469660656	-542.3472356780031	3041.80602889525	739.0258122526627	-568.2572155395281	3023.9393167828975	735.9528966559985	-581.3706613773087	3005.3523822924344	736.816353808613	-588.3415299440147	3054.429641931191	765.5906860376522	-502.3076263503059	3054.3377577113743	743.7291883985267	-531.6392451299293	3042.2123345194796	732.3310792796882	-553.4966416021166	3024.8741046482337	728.8728876600434	-565.7601348219139	3007.3482358429687	729.4506036176406	-572.131833391285	3052.435766702274	760.5967386767784	-496.56295270880986	3051.5625595701667	737.3561538276625	-520.0478071603379	3041.5458383932187	726.8729051055691	-536.2898583096427	3028.750689761288	723.6945121619971	-544.6251304437343	3013.140117743422	723.8287593176883	-549.918491687868	2857.9362178628726	1199.328512417544	-94.15152053827623	2809.474304639359	1132.8008513403645	9.665889549605295	2957.3885284882917	971.8031892358599	-160.13496640154116	3053.2631720180743	848.7261259050427	-373.1312521628025	3080.6736184656606	859.3062413531794	-394.6922260361618	3118.165120337435	852.0310643098312	-404.14390452656653	3143.4110049215724	843.6435741810207	-410.95356542605185	3163.7189565916374	833.8102216760756	-416.8251118234064	3079.2514511461954	849.2027020391358	-399.20300949438484	3119.4176015607322	834.0143386318114	-432.4553359587095	3151.8704794548994	819.0068449113434	-446.4240754450506	3172.1035405132307	811.1245852829892	-447.30853616143423	3188.8889712542727	805.5770886237171	-442.7793255855845	3075.7196031259346	840.4876858516342	-398.22848885734425	3112.984794529109	820.9607216359298	-430.1373092354043	3147.8066566094544	803.4783588290654	-445.1320815642327	3171.9336482019003	793.4378725494543	-446.0801612457527	3190.1621509374363	787.1098482957216	-441.0665362385348	3072.1560195585866	834.7384415770294	-396.79267628519796	3102.332776324356	812.3070975952802	-424.4391366144535	3132.0216544501577	795.9693020108538	-437.20385129000374	3154.9425006961474	785.7002432697038	-437.95647401285834	3171.915289833865	779.4734609704591	-433.16568055370385	3067.2266754746242	828.3919942289073	-393.37699525252754	3091.7331868389833	803.9688513045446	-416.9788335940041	3114.3428896164037	789.2675344608602	-426.60352929689975	3130.498359811597	780.9942571194421	-426.86379836746016	3145.209423064762	775.0277300158155	-422.4537828221189
